# xmcd CD database file
#
# Track frame offsets:
#	150
#	13900
#	23185
#	35130
#	48768
#	59289
#	72499
#	86308
#	97897
#	109735
#	122983
#	135118
#	147395
#	157800
#	170879
#	183869
#
# Disc length: 2651 seconds
#
# Revision: 0
# Processed by: cddbd v1.5.2PL0 Copyright (c) Steve Scherf et al.
# Submitted via: CDex 1.70beta2
#
DISCID=d40a5910
DTITLE=Tony Bennett - Vintage Vinyl
DYEAR=2006
DGENRE=Jazz
TTITLE0=Strangers In Paradise
TTITLE1=I Can't Give You Anything But Love
TTITLE2=No One Will Ever Know
TTITLE3=Because Of You
TTITLE4=While We're Young
TTITLE5=I'm The King Of The Broken Hearts
TTITLE6=Here Comes That Heartache Again
TTITLE7=Don't Cry Baby
TTITLE8=Beautiful Madness
TTITLE9=Since My Love Has Gone
TTITLE10=Someone Turned The Moon Upside Down
TTITLE11=You Could Make Me Smile Again
TTITLE12=Take Me
TTITLE13=Somewhere Along The Way
TTITLE14=I'm Lost Again
TTITLE15=I Wanna Be Loved
EXTD=YEAR: 2006
EXTT0=
EXTT1=
EXTT2=
EXTT3=
EXTT4=
EXTT5=
EXTT6=
EXTT7=
EXTT8=
EXTT9=
EXTT10=
EXTT11=
EXTT12=
EXTT13=
EXTT14=
EXTT15=
PLAYORDER=
